<?xml version="1.0" encoding="utf-8"?>
<!-- Generator: Adobe Illustrator 21.1.0, SVG Export Plug-In . SVG Version: 6.00 Build 0)  -->
<svg version="1.1" id="Layer_1" xmlns="http://www.w3.org/2000/svg" xmlns:xlink="http://www.w3.org/1999/xlink" x="0px" y="0px"
	 viewBox="0 0 30 30" style="enable-background:new 0 0 30 30;" xml:space="preserve">
<style type="text/css">
	.st0{fill:#F04F4A;}
	.st1{fill:#FFFFFF;}
</style>
<circle class="st0" cx="15" cy="15" r="15"/>
<path id="Contact" class="st1" d="M12.8,22.8c-1.1,0-1.9-0.8-1.9-1.9V10.1c0-1,0.8-1.9,1.9-1.9h4.5c1,0,1.9,0.8,1.9,1.9v10.8
	c0,1-0.8,1.9-1.9,1.9H12.8z M11.9,20.9c0,0.4,0.3,0.8,0.8,0.8l0,0h4.5c0.4,0,0.8-0.3,0.8-0.8l0,0v-2.6h-6
	C11.9,18.3,11.9,20.9,11.9,20.9z M18.1,17.2v-5.6h-6v5.6C12,17.2,18.1,17.2,18.1,17.2z M18.1,10.4v-0.3c0-0.4-0.3-0.8-0.8-0.8l0,0
	h-4.5c-0.4,0-0.8,0.3-0.8,0.8l0,0v0.3H18.1z M15,21c-0.6,0-1-0.5-1-1s0.5-1,1-1s1,0.5,1,1l0,0C16,20.6,15.6,21,15,21L15,21z"/>
</svg>
