<?xml version="1.0" encoding="utf-8"?>
<!-- Generator: Adobe Illustrator 21.1.0, SVG Export Plug-In . SVG Version: 6.00 Build 0)  -->
<svg version="1.1" id="Layer_1" xmlns="http://www.w3.org/2000/svg" xmlns:xlink="http://www.w3.org/1999/xlink" x="0px" y="0px"
	 viewBox="0 0 30 30" style="enable-background:new 0 0 30 30;" xml:space="preserve">
<style type="text/css">
	.st0{fill:#F04F4A;}
	.st1{fill:#FFFFFF;}
</style>
<circle class="st0" cx="15" cy="15" r="15"/>
<path id="Contact" class="st1" d="M11.8,26C10.2,26,9,24.8,9,23.2V7.7C9,6.2,10.2,5,11.8,5h6.5C19.8,5,21,6.2,21,7.7v15.5
	c0,1.5-1.2,2.7-2.8,2.8H11.8z M10.6,23.2c0,0.6,0.5,1.1,1.1,1.1c0,0,0,0,0,0h6.5c0.6,0,1.1-0.5,1.1-1.1c0,0,0,0,0,0v-3.7h-8.7V23.2z
	 M19.4,17.9V9.8h-8.7v8.1H19.4z M19.4,8.2V7.7c0-0.6-0.5-1.1-1.1-1.1c0,0,0,0,0,0h-6.5c-0.6,0-1.1,0.5-1.1,1.1c0,0,0,0,0,0v0.5H19.4
	z M15,23.4c-0.8,0-1.5-0.7-1.5-1.5c0-0.8,0.7-1.5,1.5-1.5c0.8,0,1.5,0.7,1.5,1.5c0,0,0,0,0,0C16.5,22.8,15.8,23.4,15,23.4L15,23.4z"
	/>
</svg>
