<?xml version="1.0" encoding="utf-8"?>
<!-- Generator: Adobe Illustrator 21.1.0, SVG Export Plug-In . SVG Version: 6.00 Build 0)  -->
<svg version="1.1" id="Layer_1" xmlns="http://www.w3.org/2000/svg" xmlns:xlink="http://www.w3.org/1999/xlink" x="0px" y="0px"
	 viewBox="0 0 17.1 17" style="enable-background:new 0 0 17.1 17;" xml:space="preserve">
<style type="text/css">
	.st0{fill:#FFFFFF;}
</style>
<path id="FB" class="st0" d="M9.1,17H0.9C0.4,17,0,16.6,0,16.1c0,0,0,0,0,0V0.9C0,0.4,0.4,0,0.9,0c0,0,0,0,0,0h15.2
	c0.5,0,0.9,0.4,0.9,0.9v15.1c0,0.5-0.4,0.9-0.9,0.9h-4.4v-6.6H14l0.3-2.6h-2.6V6.2c-0.1-0.6,0.3-1.1,0.8-1.3c0.1,0,0.3,0,0.4,0h1.4
	V2.7c-0.7-0.1-1.3-0.1-2-0.1c-1.7-0.1-3.2,1.1-3.3,2.9c0,0.2,0,0.4,0,0.5v1.9H6.9v2.6h2.2V17L9.1,17z"/>
</svg>
