<?xml version="1.0" encoding="utf-8"?>
<!-- Generator: Adobe Illustrator 21.1.0, SVG Export Plug-In . SVG Version: 6.00 Build 0)  -->
<svg version="1.1" id="Layer_1" xmlns="http://www.w3.org/2000/svg" xmlns:xlink="http://www.w3.org/1999/xlink" x="0px" y="0px"
	 viewBox="0 0 18 16" style="enable-background:new 0 0 18 16;" xml:space="preserve">
<style type="text/css">
	.st0{fill:#F04F4A;}
</style>
<path id="Give" class="st0" d="M10.9,5.8c-0.3,0.3-0.7,0.5-1.1,0.5c-0.3,0-0.7-0.1-0.9-0.4L5.2,2.2L4.9,2.5l1.2,1.3L2.1,7.9
	C2,8,1.9,8.2,1.8,8.3C1.7,8.6,1.6,8.8,1.7,9.1C0.6,8.1,0,6.7,0,5.2c0-1.4,0.6-2.7,1.5-3.7c1.6-1.6,4-2,6-1c0.3,0.2,0.6,0.3,0.8,0.5
	l0.1,0.1L11,3.7C11.5,4.3,11.4,5.2,10.9,5.8z M8,5.7L3.9,9.8c-0.2,0.2-0.4,0.3-0.7,0.3c-0.6,0-1.1-0.5-1.1-1.1
	c0-0.3,0.1-0.5,0.3-0.7l4.1-4.1L8,5.7z M18,5.2c0,1.5-0.6,2.9-1.7,3.9c-0.7,0.7-1.4,1.4-2.2,2.2l-4.4,4.4C9.6,15.9,9.3,16,9.1,16
	c-0.3,0-0.6-0.1-0.8-0.3C8.1,15.5,8,15.2,8,14.9c0-0.3,0.1-0.5,0.3-0.7l4.3-4.3l-0.4-0.4l-4.3,4.3c-0.2,0.2-0.4,0.3-0.7,0.3
	C6.5,14,6,13.5,6,12.9c0-0.3,0.1-0.5,0.3-0.7l4.3-4.3l-0.4-0.5l-4.3,4.3C5.7,11.9,5.4,12,5.2,12c-0.6,0-1.1-0.5-1.1-1.1
	c0-0.3,0.1-0.5,0.3-0.7l4.1-4.1l0.1,0.1c0.3,0.3,0.8,0.5,1.2,0.5c0.5,0,1.1-0.2,1.4-0.6C12,5.4,12,4.2,11.3,3.4l-2-2
	c2.1-1.9,5.4-1.8,7.3,0.3C17.5,2.6,18,3.9,18,5.2z"/>
</svg>
