<?xml version="1.0" encoding="utf-8"?>
<!-- Generator: Adobe Illustrator 21.1.0, SVG Export Plug-In . SVG Version: 6.00 Build 0)  -->
<svg version="1.1" id="Layer_1" xmlns="http://www.w3.org/2000/svg" xmlns:xlink="http://www.w3.org/1999/xlink" x="0px" y="0px"
	 viewBox="0 0 17.1 17" style="enable-background:new 0 0 17.1 17;" xml:space="preserve">
<style type="text/css">
	.st0{fill:#FFFFFF;}
</style>
<path id="IG" class="st0" d="M8.6,0C6.2,0,5.9,0,5,0.1C4.3,0.1,3.6,0.2,3,0.5C2.4,0.7,1.9,1,1.4,1.4C1,1.9,0.7,2.4,0.5,2.9
	C0.2,3.6,0.1,4.3,0.1,5C0,5.9,0,6.2,0,8.5s0,2.6,0.1,3.5c0,0.7,0.1,1.4,0.4,2.1c0.2,0.6,0.6,1.1,1,1.5c0.4,0.4,0.9,0.8,1.5,1
	c0.7,0.3,1.4,0.4,2.1,0.4C5.9,17,6.2,17,8.6,17s2.6,0,3.5-0.1c0.7,0,1.4-0.2,2.1-0.4c0.6-0.2,1.1-0.5,1.5-1c0.4-0.4,0.8-0.9,1-1.5
	c0.2-0.7,0.4-1.4,0.4-2.1c0-0.9,0.1-1.2,0.1-3.5s0-2.6-0.1-3.5c0-0.7-0.2-1.4-0.4-2.1c-0.2-0.6-0.6-1.1-1-1.5
	c-0.4-0.4-0.9-0.8-1.5-1c-0.7-0.2-1.4-0.4-2.1-0.4C11.2,0,10.9,0,8.6,0z M8.6,1.5c2.3,0,2.6,0,3.5,0.1c0.5,0,1.1,0.1,1.6,0.3
	c0.4,0.1,0.7,0.4,1,0.6c0.3,0.3,0.5,0.6,0.6,1c0.2,0.5,0.3,1,0.3,1.6c0,0.9,0.1,1.2,0.1,3.4s0,2.5-0.1,3.4c0,0.5-0.1,1.1-0.3,1.6
	c-0.1,0.4-0.4,0.7-0.6,1c-0.3,0.3-0.6,0.5-1,0.6c-0.5,0.2-1,0.3-1.6,0.3c-0.9,0-1.2,0.1-3.5,0.1s-2.6,0-3.4-0.1
	c-0.5,0-1.1-0.1-1.6-0.3c-0.4-0.1-0.7-0.4-1-0.6c-0.3-0.3-0.5-0.6-0.6-1c-0.2-0.5-0.3-1-0.3-1.6c0-0.9-0.1-1.2-0.1-3.4
	s0-2.5,0.1-3.4c0-0.5,0.1-1.1,0.3-1.6c0.1-0.4,0.4-0.7,0.6-1c0.3-0.3,0.6-0.5,1-0.6c0.5-0.2,1-0.3,1.6-0.3C6,1.5,6.3,1.5,8.6,1.5z
	 M8.6,4.1c-2.4,0-4.3,2-4.3,4.4s2,4.3,4.4,4.3c2.4,0,4.3-2,4.3-4.4C13,6.1,11,4.1,8.6,4.1C8.6,4.1,8.6,4.1,8.6,4.1z M8.6,11.3
	C7,11.3,5.7,10,5.8,8.5c0-1.6,1.3-2.8,2.9-2.8c1.6,0,2.8,1.3,2.8,2.8C11.4,10.1,10.1,11.3,8.6,11.3C8.6,11.3,8.6,11.3,8.6,11.3z
	 M14.2,4c0,0.6-0.5,1-1,1c-0.6,0-1-0.5-1-1c0-0.6,0.5-1,1-1c0,0,0,0,0,0C13.7,2.9,14.2,3.4,14.2,4C14.2,4,14.2,4,14.2,4z"/>
</svg>
