<svg id="Layer_1" data-name="Layer 1" xmlns="http://www.w3.org/2000/svg" viewBox="0 0 30 30"><defs><style>.cls-1{fill:#f04f4a;}.cls-2{fill:#fff;}</style></defs><title>join-red-bg</title><circle class="cls-1" cx="15" cy="15" r="15"/><path id="JoinUs" class="cls-2" d="M15,13.5a2.56,2.56,0,1,1,.24-5.12A2.59,2.59,0,0,1,17.68,11,2.68,2.68,0,0,1,15,13.5Zm0-3.86a1.3,1.3,0,0,0,.08,2.6A1.3,1.3,0,0,0,16.34,11,1.38,1.38,0,0,0,15,9.64Zm5.28,9H9.64V18c0-2.21,2.21-3.86,5.36-3.86s5.36,1.58,5.36,3.86v.63Zm-9.22-1.26h7.88C18.47,16.18,17,15.47,15,15.47s-3.47.71-3.94,1.89Zm12.76.39c-.24-.87-1.26-1.34-2.68-1.34a3.71,3.71,0,0,1,.32,1.34ZM8.93,12.24a.91.91,0,1,1-.08,1.81A.87.87,0,0,1,8,13.18a1,1,0,0,1,.95-.95ZM6.26,17.75H8.54a2.59,2.59,0,0,1,.32-1.34c-1.34,0-2.36.47-2.6,1.34ZM21,12.24a.91.91,0,1,1-.08,1.81.87.87,0,0,1-.87-.87.91.91,0,0,1,.95-.95Zm0,2.68a2,2,0,0,0,1.81-2,2,2,0,0,0-2-1.81A1.89,1.89,0,0,0,19,12.95a2,2,0,0,0,2,2Zm0-2.76A.91.91,0,1,1,20.91,14a.87.87,0,0,1-.87-.87,1,1,0,0,1,.95-.95ZM8.93,14.92a1.85,1.85,0,1,0,0-3.7h0a1.92,1.92,0,0,0-2.44,1.1,1.8,1.8,0,0,0,1,2.36,1.84,1.84,0,0,0,1.42.24Zm0-2.76a1,1,0,0,1,.95.87h0a.91.91,0,0,1-.95.95h0A1,1,0,0,1,8,13.11a1.09,1.09,0,0,1,.95-.95Zm-.47,5.59H6.26c.24-.79,1.26-1.34,2.6-1.34a3.25,3.25,0,0,1,.55-.87H9c-2.28-.08-3.86,1.1-3.86,2.68v.39H8.46Zm16.39.39c0-1.58-1.58-2.76-3.86-2.76h-.32a3.25,3.25,0,0,1,.55.87c1.42,0,2.44.55,2.68,1.34H21.54v.87h3.31Z"/></svg>