<?xml version="1.0" encoding="utf-8"?>
<!-- Generator: Adobe Illustrator 21.1.0, SVG Export Plug-In . SVG Version: 6.00 Build 0)  -->
<svg version="1.1" id="Layer_1" xmlns="http://www.w3.org/2000/svg" xmlns:xlink="http://www.w3.org/1999/xlink" x="0px" y="0px"
	 viewBox="0 0 30 30" style="enable-background:new 0 0 30 30;" xml:space="preserve">
<style type="text/css">
	.st0{fill:#F04F4A;}
	.st1{fill:#FFFFFF;}
</style>
<circle class="st0" cx="15" cy="15" r="15"/>
<path id="JoinUs" class="st1" d="M15,13.5c-1.8-0.1-3.2-1.6-3.1-3.4c0.1-1.8,1.6-3.2,3.4-3.1c1.7,0.1,3.1,1.5,3.1,3.3
	C18.3,12.1,16.8,13.5,15,13.5z M15,8.6c-0.9,0-1.6,0.8-1.6,1.7s0.8,1.6,1.7,1.6c0.9,0,1.6-0.8,1.6-1.6C16.6,9.3,15.9,8.6,15,8.6z
	 M21.7,20H8.2v-0.8c0-2.8,2.8-4.9,6.8-4.9s6.8,2,6.8,4.9V20z M10,18.4H20C19.4,16.9,17.6,16,15,16S10.6,16.9,10,18.4L10,18.4z
	 M26.2,18.9c-0.3-1.1-1.6-1.7-3.4-1.7c0.2,0.5,0.4,1.1,0.4,1.7H26.2z M7.3,11.9c0.6,0,1.1,0.6,1.1,1.2c0,0.6-0.6,1.1-1.2,1.1
	c-0.6,0-1.1-0.5-1.1-1.1C6.2,12.4,6.7,11.9,7.3,11.9C7.3,11.9,7.3,11.9,7.3,11.9L7.3,11.9z M3.9,18.9h2.9c0-0.6,0.1-1.2,0.4-1.7
	C5.5,17.2,4.2,17.8,3.9,18.9L3.9,18.9z M22.6,11.9c0.6,0,1.1,0.6,1.1,1.2c0,0.6-0.6,1.1-1.2,1.1c-0.6,0-1.1-0.5-1.1-1.1
	C21.4,12.4,21.9,11.9,22.6,11.9L22.6,11.9z M22.6,15.3c1.3-0.1,2.3-1.2,2.3-2.5c-0.1-1.3-1.2-2.3-2.5-2.3c-1.3,0.1-2.3,1.1-2.3,2.3
	C20.2,14.3,21.3,15.3,22.6,15.3L22.6,15.3z M22.6,11.8c0.6,0,1.1,0.6,1.1,1.2c0,0.6-0.6,1.1-1.2,1.1c-0.6,0-1.1-0.5-1.1-1.1
	C21.4,12.3,22,11.8,22.6,11.8L22.6,11.8z M7.3,15.3c1.3,0,2.4-1,2.4-2.4c0-1.3-1.1-2.3-2.4-2.3c0,0,0,0,0,0
	c-1.2-0.5-2.6,0.2-3.1,1.4c-0.5,1.2,0.1,2.5,1.3,3C6.1,15.4,6.7,15.4,7.3,15.3L7.3,15.3z M7.3,11.8c0.6,0,1.2,0.5,1.2,1.1
	c0,0,0,0,0,0c0,0.7-0.5,1.2-1.2,1.2c0,0,0,0,0,0c-0.6,0-1.2-0.5-1.2-1.1C6.2,12.4,6.7,11.8,7.3,11.8L7.3,11.8z M6.7,18.9H3.9
	c0.3-1,1.6-1.7,3.3-1.7c0.2-0.4,0.4-0.8,0.7-1.1H7.4c-2.9-0.1-4.9,1.4-4.9,3.4V20h4.2V18.9z M27.5,19.4c0-2-2-3.5-4.9-3.5h-0.4
	c0.3,0.3,0.5,0.7,0.7,1.1c1.8,0,3.1,0.7,3.4,1.7h-3v1.1h4.2V19.4z"/>
</svg>
