<svg id="Layer_1" data-name="Layer 1" xmlns="http://www.w3.org/2000/svg" viewBox="0 0 30 30"><defs><style>.cls-1{fill:#f04f4a;}.cls-2{fill:#fff;}</style></defs><title>location-red-bg</title><circle class="cls-1" cx="15" cy="15" r="15"/><path id="Location_Address" data-name="Location Address" class="cls-2" d="M15,23.47c-1.33,0-6.66-7.68-6.66-10.19a6.68,6.68,0,0,1,13.32,0c0,1.65-2.19,5-2.82,6-.31.39-2.82,4.15-3.84,4.15Zm0-15a5,5,0,0,0-5.09,4.78c0,2,4.15,8,5,8.23.71-.16,5.09-6.19,5.09-8.23A4.85,4.85,0,0,0,15,8.5ZM15,16a2.75,2.75,0,1,1,2.9-2.74A2.81,2.81,0,0,1,15,16Zm0-4a1.26,1.26,0,0,0,.16,2.51,1.34,1.34,0,0,0,1.18-1.25A1.21,1.21,0,0,0,15,12Z" transform="translate(0 -0.27)"/></svg>