<svg id="Layer_1" data-name="Layer 1" xmlns="http://www.w3.org/2000/svg" viewBox="0 0 16 16"><defs><style>.cls-1{fill:#f04f4a;}</style></defs><title>schedule</title><path id="Schedule_a_Visit" data-name="Schedule a Visit" class="cls-1" d="M15.1,16H.9a.9.9,0,0,1-.9-.9H0V2.5a.9.9,0,0,1,.9-.9H2.6V.9A.77.77,0,0,1,3.4,0a.9.9,0,0,1,.9.9v.7H5.6V.9A.82.82,0,0,1,6.4,0a.88.88,0,0,1,.9.8v.8H8.6V.9a.9.9,0,1,1,1.8,0v.7h1.3V.9a.9.9,0,1,1,1.8,0v.7h1.7a.88.88,0,0,1,.8.9h0V15.1a.9.9,0,0,1-.9.9ZM1.8,14.2H14.2v-6H1.8Zm0-7.9H14.2V3.4h-.8v.7a.9.9,0,1,1-1.8,0h0V3.4H10.3v.7a.77.77,0,0,1-.8.9.9.9,0,0,1-.9-.9h0V3.4H7.3v.7a.77.77,0,0,1-.8.9.88.88,0,0,1-.9-.8V3.4H4.3v.7a.9.9,0,0,1-1.8,0h0V3.4H1.8V6.3Z"/></svg>