<?xml version="1.0" encoding="utf-8"?>
<!-- Generator: Adobe Illustrator 21.1.0, SVG Export Plug-In . SVG Version: 6.00 Build 0)  -->
<svg version="1.1" id="Layer_1" xmlns="http://www.w3.org/2000/svg" xmlns:xlink="http://www.w3.org/1999/xlink" x="0px" y="0px"
	 viewBox="0 0 16 16" style="enable-background:new 0 0 16 16;" xml:space="preserve">
<style type="text/css">
	.st0{fill:#F04F4A;}
</style>
<path id="Schedule_a_Visit" class="st0" d="M15.1,16H0.9C0.4,16,0,15.6,0,15.1c0,0,0,0,0,0V2.5C0,2,0.4,1.6,0.9,1.6c0,0,0,0,0,0h1.7
	V0.9C2.5,0.4,2.9,0,3.4,0s0.9,0.4,0.9,0.9v0.7h1.3V0.9C5.6,0.4,5.9,0,6.4,0c0.5,0,0.9,0.4,0.9,0.8c0,0,0,0.1,0,0.1v0.7h1.3V0.9
	C8.6,0.4,9,0,9.5,0s0.9,0.4,0.9,0.9v0.7h1.3V0.9c0-0.5,0.4-0.9,0.9-0.9s0.9,0.4,0.9,0.9v0.7h1.7C15.6,1.6,16,2,16,2.5v0v12.6
	C16,15.6,15.6,16,15.1,16C15.1,16,15.1,16,15.1,16z M1.8,14.2h12.4v-6H1.8V14.2z M1.8,6.3h12.4V3.4h-0.8v0.7C13.4,4.6,13,5,12.5,5
	s-0.9-0.4-0.9-0.9l0,0V3.4h-1.3v0.7C10.4,4.6,10,5,9.5,5S8.6,4.6,8.6,4.1l0,0V3.4H7.3v0.7C7.4,4.6,7,5,6.5,5C6,5,5.6,4.6,5.6,4.2
	c0,0,0-0.1,0-0.1V3.4H4.3v0.7C4.3,4.6,3.9,5,3.4,5S2.5,4.6,2.5,4.1l0,0V3.4H1.8L1.8,6.3L1.8,6.3z"/>
</svg>
