<?xml version="1.0" encoding="utf-8"?>
<!-- Generator: Adobe Illustrator 21.1.0, SVG Export Plug-In . SVG Version: 6.00 Build 0)  -->
<svg version="1.1" id="Layer_1" xmlns="http://www.w3.org/2000/svg" xmlns:xlink="http://www.w3.org/1999/xlink" x="0px" y="0px"
	 viewBox="0 0 17 14.2" style="enable-background:new 0 0 17 14.2;" xml:space="preserve">
<style type="text/css">
	.st0{fill:#FFFFFF;}
</style>
<path id="TW" class="st0" d="M17,1.7c-0.6,0.3-1.3,0.5-2,0.6c0.7-0.5,1.3-1.2,1.5-2c-0.7,0.4-1.4,0.7-2.2,0.9
	C13.7,0.4,12.7,0,11.8,0C9.8,0,8.2,1.6,8.3,3.6c0,0,0,0,0,0c0,0.3,0,0.6,0.1,0.8C5.5,4.2,2.9,2.9,1.2,0.7C0.2,2.3,0.7,4.4,2.2,5.4
	C1.7,5.4,1.2,5.3,0.7,5v0c0,1.7,1.2,3.2,2.8,3.5C3.2,8.6,2.9,8.7,2.6,8.7c-0.2,0-0.4,0-0.7-0.1C2.3,10,3.6,11,5.2,11.1
	c-1.2,1-2.8,1.5-4.3,1.5c-0.3,0-0.6,0-0.8-0.1c1.6,1,3.4,1.6,5.3,1.6c6.4,0,9.9-5.4,9.9-10.2c0-0.2,0-0.3,0-0.5
	C15.9,3,16.5,2.4,17,1.7"/>
</svg>
