<?xml version="1.0" encoding="utf-8"?>
<!-- Generator: Adobe Illustrator 21.1.0, SVG Export Plug-In . SVG Version: 6.00 Build 0)  -->
<svg version="1.1" id="Layer_1" xmlns="http://www.w3.org/2000/svg" xmlns:xlink="http://www.w3.org/1999/xlink" x="0px" y="0px"
	 viewBox="0 0 17.1 12.1" style="enable-background:new 0 0 17.1 12.1;" xml:space="preserve">
<style type="text/css">
	.st0{fill:#FFFFFF;}
</style>
<path id="YT" class="st0" d="M6.8,8.2V3.4l4.6,2.4L6.8,8.2z M16.9,2.6c-0.1-0.6-0.3-1.2-0.7-1.7c-0.4-0.5-1.1-0.7-1.7-0.7
	C12.2,0,8.6,0,8.6,0l0,0c0,0-3.6,0-6,0.2c-0.6,0-1.3,0.3-1.7,0.7C0.5,1.4,0.3,2,0.2,2.6C0.1,3.5,0,4.5,0,5.4v1.3
	c0,0.9,0.1,1.9,0.2,2.8c0.1,0.6,0.3,1.2,0.7,1.7c0.5,0.5,1.2,0.7,1.9,0.7c1.4,0.1,5.8,0.2,5.8,0.2s3.6,0,6-0.2
	c0.6,0,1.3-0.3,1.7-0.7c0.4-0.5,0.6-1.1,0.7-1.7c0.1-0.9,0.2-1.8,0.2-2.8V5.4C17.1,4.5,17,3.5,16.9,2.6L16.9,2.6z"/>
</svg>
